<svg width="832" height="102" viewBox="0 0 832 102" fill="none" xmlns="http://www.w3.org/2000/svg">
<path d="M59.38 5.91999L58.9059 6.80049L58.9129 6.80419L59.38 5.91999ZM70.72 16.98L69.8434 17.4613L69.8491 17.4715L69.855 17.4817L70.72 16.98ZM70.58 49.32L69.7225 48.8055L69.7187 48.8119L69.715 48.8183L70.58 49.32ZM58.96 60.1L58.5128 59.2056L58.96 60.1ZM23.12 99.58L22.4129 98.8729H22.4129L23.12 99.58ZM0.86 99.58L0.0600004 100.18L0.145715 100.294L0.26 100.38L0.86 99.58ZM0.86 2.55999L0.152893 1.85289H0.152891L0.86 2.55999ZM48.04 42.18L47.3774 41.431L47.3701 41.4375L47.3629 41.4441L48.04 42.18ZM48.04 25.24L47.3475 25.9614L47.3622 25.9755L47.3774 25.989L48.04 25.24ZM42.58 2.99999C48.7864 2.99999 54.219 4.27674 58.9059 6.80046L59.8541 5.03952C54.8343 2.33657 49.0669 0.999992 42.58 0.999992V2.99999ZM58.9129 6.80419C63.6921 9.32907 67.3272 12.8781 69.8434 17.4613L71.5966 16.4987C68.8861 11.5619 64.9612 7.73758 59.8471 5.0358L58.9129 6.80419ZM69.855 17.4817C72.4613 21.9754 73.78 27.2108 73.78 33.22H75.78C75.78 26.9092 74.392 21.3179 71.585 16.4783L69.855 17.4817ZM73.78 33.22C73.78 39.1268 72.4189 44.3116 69.7225 48.8055L71.4375 49.8345C74.3412 44.9951 75.78 39.4465 75.78 33.22H73.78ZM69.715 48.8183C67.1108 53.3083 63.3864 56.7688 58.5128 59.2056L59.4072 60.9944C64.6136 58.3912 68.6359 54.665 71.445 49.8217L69.715 48.8183ZM58.5128 59.2056C53.6341 61.6449 47.9586 62.88 41.46 62.88V64.88C48.2147 64.88 54.2059 63.5951 59.4072 60.9944L58.5128 59.2056ZM41.46 62.88H24.38V64.88H41.46V62.88ZM24.38 62.88C23.9925 62.88 23.5182 62.9775 23.1479 63.3479C22.7775 63.7182 22.68 64.1925 22.68 64.58H24.68C24.68 64.5008 24.6991 64.6251 24.5621 64.7621C24.4251 64.8991 24.3008 64.88 24.38 64.88V62.88ZM22.68 64.58V98.32H24.68V64.58H22.68ZM22.68 98.32C22.68 98.4857 22.6255 98.6602 22.4129 98.8729L23.8271 100.287C24.3611 99.7531 24.68 99.0876 24.68 98.32H22.68ZM22.4129 98.8729C22.3536 98.9322 22.2524 99 22 99V101C22.6809 101 23.3264 100.788 23.8271 100.287L22.4129 98.8729ZM22 99H2.12V101H22V99ZM2.12 99C1.8697 99 1.66024 98.9302 1.46 98.78L0.26 100.38C0.80643 100.79 1.43696 101 2.12 101V99ZM1.66 98.98C1.50982 98.7798 1.44 98.5703 1.44 98.32H-0.559999C-0.559999 99.003 -0.349822 99.6336 0.0600004 100.18L1.66 98.98ZM1.44 98.32V3.68H-0.559999V98.32H1.44ZM1.44 3.68C1.44 3.42759 1.50784 3.32637 1.56711 3.2671L0.152891 1.85289C-0.347842 2.35363 -0.559999 2.99907 -0.559999 3.68H1.44ZM1.56711 3.2671C1.77975 3.05445 1.95425 2.99999 2.12 2.99999V0.999992C1.35242 0.999992 0.686914 1.31887 0.152893 1.85289L1.56711 3.2671ZM2.12 2.99999H42.58V0.999992H2.12V2.99999ZM38.8 46.4C42.8227 46.4 46.1625 45.2662 48.7171 42.9159L47.3629 41.4441C45.2509 43.3872 42.4306 44.4 38.8 44.4V46.4ZM48.7026 42.929C51.3593 40.5788 52.68 37.4985 52.68 33.78H50.68C50.68 36.9682 49.574 39.4878 47.3774 41.431L48.7026 42.929ZM52.68 33.78C52.68 29.9773 51.3656 26.8468 48.7026 24.491L47.3774 25.989C49.5677 27.9266 50.68 30.4894 50.68 33.78H52.68ZM48.7325 24.5186C46.1795 22.0677 42.8343 20.88 38.8 20.88V22.88C42.419 22.88 45.2339 23.9323 47.3475 25.9614L48.7325 24.5186ZM38.8 20.88H24.38V22.88H38.8V20.88ZM24.38 20.88C23.9925 20.88 23.5182 20.9775 23.1479 21.3479C22.7775 21.7182 22.68 22.1925 22.68 22.58H24.68C24.68 22.5008 24.6991 22.6251 24.5621 22.7621C24.4251 22.8991 24.3008 22.88 24.38 22.88V20.88ZM22.68 22.58V44.7H24.68V22.58H22.68ZM22.68 44.7C22.68 45.0875 22.7775 45.5618 23.1479 45.9321C23.5182 46.3025 23.9925 46.4 24.38 46.4V44.4C24.3008 44.4 24.4251 44.3809 24.5621 44.5179C24.6991 44.6549 24.68 44.7792 24.68 44.7H22.68ZM24.38 46.4H38.8V44.4H24.38V46.4ZM135.072 98.74L134.158 99.1455L134.158 99.1461L135.072 98.74ZM118.552 61.5L119.466 61.0945L119.457 61.0734L119.446 61.0528L118.552 61.5ZM107.212 99.58L107.919 100.287L107.212 99.58ZM84.9519 99.58L84.1519 100.18L84.2376 100.294L84.3519 100.38L84.9519 99.58ZM84.9519 2.55999L84.2448 1.85289L84.9519 2.55999ZM154.812 16.56L153.932 17.0351L153.938 17.0457L153.944 17.0561L154.812 16.56ZM154.112 48.62L153.282 48.0614V48.0614L154.112 48.62ZM141.232 58.56L140.882 57.623L140.871 57.6271L140.86 57.6315L141.232 58.56ZM140.812 59.54L139.883 59.9114L139.896 59.9425L139.91 59.9727L140.812 59.54ZM159.292 98.04L158.39 98.4727L158.394 98.48L158.397 98.4872L159.292 98.04ZM132.412 40.36L133.068 41.1146L133.077 41.1067L133.086 41.0985L132.412 40.36ZM132.412 24.82L131.738 25.5585L132.412 24.82ZM137.032 99C136.718 99 136.518 98.9308 136.383 98.8438C136.248 98.7574 136.108 98.6089 135.986 98.3339L134.158 99.1461C134.409 99.7111 134.782 100.193 135.301 100.526C135.819 100.859 136.413 101 137.032 101V99ZM135.986 98.3345L119.466 61.0945L117.638 61.9055L134.158 99.1455L135.986 98.3345ZM119.446 61.0528C119.294 60.7475 119.072 60.4584 118.757 60.2479C118.435 60.0333 118.074 59.94 117.712 59.94V61.94C117.721 61.94 117.716 61.9411 117.7 61.9365C117.683 61.9317 117.664 61.9233 117.647 61.912C117.631 61.9011 117.624 61.893 117.626 61.8952C117.629 61.8981 117.64 61.9131 117.657 61.9472L119.446 61.0528ZM117.712 59.94H108.472V61.94H117.712V59.94ZM108.472 59.94C108.084 59.94 107.61 60.0375 107.24 60.4079C106.869 60.7782 106.772 61.2525 106.772 61.64H108.772C108.772 61.5608 108.791 61.6851 108.654 61.8221C108.517 61.9591 108.393 61.94 108.472 61.94V59.94ZM106.772 61.64V98.32H108.772V61.64H106.772ZM106.772 98.32C106.772 98.4857 106.717 98.6602 106.505 98.8729L107.919 100.287C108.453 99.7531 108.772 99.0876 108.772 98.32H106.772ZM106.505 98.8729C106.446 98.9322 106.344 99 106.092 99V101C106.773 101 107.418 100.788 107.919 100.287L106.505 98.8729ZM106.092 99H86.2119V101H106.092V99ZM86.2119 99C85.9616 99 85.7521 98.9302 85.5519 98.78L84.3519 100.38C84.8983 100.79 85.5288 101 86.2119 101V99ZM85.7519 98.98C85.6017 98.7798 85.5319 98.5703 85.5319 98.32H83.5319C83.5319 99.003 83.7421 99.6336 84.1519 100.18L85.7519 98.98ZM85.5319 98.32V3.68H83.5319V98.32H85.5319ZM85.5319 3.68C85.5319 3.42759 85.5997 3.32637 85.659 3.2671L84.2448 1.85289C83.744 2.35363 83.5319 2.99907 83.5319 3.68H85.5319ZM85.659 3.2671C85.8716 3.05445 86.0461 2.99999 86.2119 2.99999V0.999992C85.4443 0.999992 84.7788 1.31887 84.2448 1.85289L85.659 3.2671ZM86.2119 2.99999H127.792V0.999992H86.2119V2.99999ZM127.792 2.99999C133.813 2.99999 139.058 4.2306 143.557 6.6599L144.507 4.90009C139.672 2.28939 134.091 0.999992 127.792 0.999992V2.99999ZM143.557 6.6599C148.052 9.0873 151.505 12.54 153.932 17.0351L155.692 16.0849C153.079 11.2467 149.345 7.51269 144.507 4.90009L143.557 6.6599ZM153.944 17.0561C156.46 21.459 157.732 26.557 157.732 32.38H159.732C159.732 26.2564 158.391 20.8076 155.68 16.0639L153.944 17.0561ZM157.732 32.38C157.732 38.4619 156.237 43.6746 153.282 48.0614L154.941 49.1786C158.147 44.4187 159.732 38.8048 159.732 32.38H157.732ZM153.282 48.0614C150.327 52.4499 146.207 55.6375 140.882 57.623L141.581 59.497C147.27 57.3758 151.737 53.9368 154.941 49.1786L153.282 48.0614ZM140.86 57.6315C140.484 57.7821 140.069 58.058 139.858 58.5511C139.646 59.0442 139.733 59.5349 139.883 59.9114L141.74 59.1686C141.704 59.0784 141.767 59.1725 141.696 59.3389C141.625 59.5053 141.513 59.5246 141.603 59.4885L140.86 57.6315ZM139.91 59.9727L158.39 98.4727L160.193 97.6073L141.713 59.1073L139.91 59.9727ZM158.397 98.4872C158.478 98.6474 158.526 98.7653 158.553 98.8462C158.583 98.9363 158.572 98.9379 158.572 98.88H160.572C160.572 98.4385 160.377 97.974 160.186 97.5928L158.397 98.4872ZM158.572 98.88C158.572 98.9528 158.559 98.9688 158.567 98.9533C158.57 98.9459 158.576 98.936 158.584 98.9261C158.588 98.9215 158.591 98.9179 158.594 98.9152C158.596 98.9139 158.597 98.9129 158.597 98.9122C158.598 98.9116 158.599 98.9113 158.599 98.9113C158.599 98.9113 158.598 98.9116 158.597 98.9123C158.596 98.9129 158.595 98.914 158.592 98.9152C158.588 98.9178 158.581 98.9215 158.57 98.926C158.55 98.935 158.517 98.9467 158.47 98.9581C158.373 98.9816 158.231 99 158.032 99V101C158.637 101 159.271 100.895 159.775 100.529C160.338 100.119 160.572 99.5091 160.572 98.88H158.572ZM158.032 99H137.032V101H158.032V99ZM108.472 20.88C108.084 20.88 107.61 20.9775 107.24 21.3479C106.869 21.7182 106.772 22.1925 106.772 22.58H108.772C108.772 22.5008 108.791 22.6251 108.654 22.7621C108.517 22.8991 108.393 22.88 108.472 22.88V20.88ZM106.772 22.58V42.46H108.772V22.58H106.772ZM106.772 42.46C106.772 42.8475 106.869 43.3218 107.24 43.6921C107.61 44.0625 108.084 44.16 108.472 44.16V42.16C108.393 42.16 108.517 42.1409 108.654 42.2779C108.791 42.4149 108.772 42.5392 108.772 42.46H106.772ZM108.472 44.16H124.012V42.16H108.472V44.16ZM124.012 44.16C127.652 44.16 130.702 43.1716 133.068 41.1146L131.756 39.6054C129.828 41.2817 127.278 42.16 124.012 42.16V44.16ZM133.086 41.0985C135.461 38.9304 136.632 36.0855 136.632 32.66H134.632C134.632 35.5811 133.656 37.8696 131.738 39.6215L133.086 41.0985ZM136.632 32.66C136.632 29.1509 135.467 26.2555 133.086 24.0815L131.738 25.5585C133.65 27.3045 134.632 29.6358 134.632 32.66H136.632ZM133.086 24.0815C130.722 21.9225 127.665 20.88 124.012 20.88V22.88C127.265 22.88 129.809 23.7975 131.738 25.5585L133.086 24.0815ZM124.012 20.88H108.472V22.88H124.012V20.88ZM187.048 97.06L186.572 97.9395L186.581 97.9442L186.589 97.9486L187.048 97.06ZM173.748 84.18L174.614 83.6807L173.748 84.18ZM173.748 18.24L174.611 18.7457L174.614 18.7393L173.748 18.24ZM187.048 5.5L187.513 6.38556L187.518 6.38274L187.048 5.5ZM227.088 5.5L226.618 6.38282L226.629 6.38862L227.088 5.5ZM240.528 18.24L239.662 18.7393L239.665 18.7457L240.528 18.24ZM240.528 84.18L239.662 83.6807L240.528 84.18ZM227.088 97.06L227.547 97.9487L227.558 97.9427L227.088 97.06ZM217.848 77.32L217.129 76.6246L217.123 76.6307L217.118 76.6368L217.848 77.32ZM217.848 25.24L217.107 25.9115L217.118 25.9236L217.129 25.9354L217.848 25.24ZM196.288 25.24L195.558 24.5561L195.558 24.5568L196.288 25.24ZM196.288 77.32L195.558 78.0032L195.563 78.0093L195.569 78.0154L196.288 77.32ZM207.068 100.54C199.642 100.54 193.13 99.0739 187.507 96.1714L186.589 97.9486C192.539 101.019 199.374 102.54 207.068 102.54V100.54ZM187.524 96.1805C181.99 93.1869 177.693 89.0238 174.614 83.6807L172.882 84.6793C176.149 90.3495 180.719 94.7731 186.572 97.9395L187.524 96.1805ZM174.614 83.6807C171.541 78.3468 169.988 72.1306 169.988 65H167.988C167.988 72.4294 169.609 78.9998 172.882 84.6793L174.614 83.6807ZM169.988 65V37H167.988V65H169.988ZM169.988 37C169.988 30.0608 171.538 23.9865 174.611 18.7457L172.885 17.7343C169.611 23.3202 167.988 29.7525 167.988 37H169.988ZM174.614 18.7393C177.692 13.3989 181.985 9.28524 187.513 6.38554L186.583 4.61445C180.724 7.6881 176.151 12.0678 172.882 17.7407L174.614 18.7393ZM187.518 6.38274C193.139 3.39079 199.647 1.88 207.068 1.88V-0.119999C199.369 -0.119999 192.53 1.4492 186.578 4.61725L187.518 6.38274ZM207.068 1.88C214.489 1.88 220.997 3.39079 226.618 6.38274L227.558 4.61725C221.606 1.4492 214.767 -0.119999 207.068 -0.119999V1.88ZM226.629 6.38862C232.25 9.2896 236.586 13.4031 239.662 18.7393L241.394 17.7407C238.123 12.0636 233.499 7.68373 227.547 4.61138L226.629 6.38862ZM239.665 18.7457C242.737 23.9865 244.288 30.0608 244.288 37H246.288C246.288 29.7525 244.665 23.3202 241.391 17.7343L239.665 18.7457ZM244.288 37V65H246.288V37H244.288ZM244.288 65C244.288 72.1306 242.735 78.3468 239.662 83.6807L241.394 84.6793C244.667 78.9998 246.288 72.4294 246.288 65H244.288ZM239.662 83.6807C236.585 89.0196 232.245 93.1824 226.618 96.1772L227.558 97.9427C233.505 94.7776 238.124 90.3537 241.394 84.6793L239.662 83.6807ZM226.629 96.1714C221.006 99.0739 214.494 100.54 207.068 100.54V102.54C214.762 102.54 221.597 101.019 227.547 97.9486L226.629 96.1714ZM207.068 82.66C211.785 82.66 215.657 81.126 218.578 78.0032L217.118 76.6368C214.626 79.3007 211.311 80.66 207.068 80.66V82.66ZM218.567 78.0154C221.583 74.8985 223.048 70.7562 223.048 65.7H221.048C221.048 70.3505 219.713 73.9549 217.129 76.6246L218.567 78.0154ZM223.048 65.7V36.72H221.048V65.7H223.048ZM223.048 36.72C223.048 31.7511 221.579 27.6579 218.567 24.5446L217.129 25.9354C219.717 28.6088 221.048 32.1689 221.048 36.72H223.048ZM218.589 24.5685C215.67 21.348 211.795 19.76 207.068 19.76V21.76C211.301 21.76 214.612 23.1586 217.107 25.9115L218.589 24.5685ZM207.068 19.76C202.427 19.76 198.562 21.3522 195.558 24.5561L197.018 25.9239C199.614 23.1545 202.936 21.76 207.068 21.76V19.76ZM195.558 24.5568C192.644 27.6715 191.228 31.7604 191.228 36.72H193.228C193.228 32.1596 194.519 28.5952 197.018 25.9231L195.558 24.5568ZM191.228 36.72V65.7H193.228V36.72H191.228ZM191.228 65.7C191.228 70.7469 192.641 74.8849 195.558 78.0032L197.018 76.6368C194.522 73.9684 193.228 70.3597 193.228 65.7H191.228ZM195.569 78.0154C198.576 81.1219 202.437 82.66 207.068 82.66V80.66C202.925 80.66 199.6 79.3048 197.007 76.6246L195.569 78.0154ZM270.488 97.06L270.929 96.1626L270.488 97.06ZM257.748 85.58L256.888 86.0898L256.892 86.0969L257.748 85.58ZM253.688 58.98L254.395 59.6871L253.688 58.98ZM275.948 58.98L275.148 59.58L275.234 59.6943L275.348 59.78L275.948 58.98ZM280.008 77.74L279.287 78.4331L279.294 78.4402L279.301 78.4471L280.008 77.74ZM299.328 77.74L300.007 78.4738L300.015 78.4671L300.022 78.4603L299.328 77.74ZM303.528 2.55999L302.821 1.85289V1.85289L303.528 2.55999ZM325.648 2.55999L324.848 3.15999L324.934 3.27428L325.048 3.35999L325.648 2.55999ZM321.588 85.44L322.437 85.9686L321.588 85.44ZM308.568 97.06L309.009 97.9575L309.015 97.9544L308.568 97.06ZM289.668 100.12C282.513 100.12 276.275 98.7903 270.929 96.1626L270.047 97.9574C275.714 100.743 282.263 102.12 289.668 102.12V100.12ZM270.929 96.1626C265.583 93.5349 261.485 89.8355 258.604 85.0631L256.892 86.0969C259.984 91.2178 264.379 95.1718 270.047 97.9574L270.929 96.1626ZM258.608 85.0702C255.722 80.1996 254.268 74.6389 254.268 68.36H252.268C252.268 74.9611 253.801 80.8804 256.888 86.0898L258.608 85.0702ZM254.268 68.36V60.1H252.268V68.36H254.268ZM254.268 60.1C254.268 59.8476 254.336 59.7464 254.395 59.6871L252.981 58.2729C252.48 58.7736 252.268 59.4191 252.268 60.1H254.268ZM254.395 59.6871C254.608 59.4745 254.782 59.42 254.948 59.42V57.42C254.18 57.42 253.515 57.7389 252.981 58.2729L254.395 59.6871ZM254.948 59.42H274.828V57.42H254.948V59.42ZM274.828 59.42C274.98 59.42 275.057 59.4585 275.148 59.58L276.748 58.38C276.279 57.7549 275.609 57.42 274.828 57.42V59.42ZM275.348 59.78C275.47 59.8711 275.508 59.9481 275.508 60.1H277.508C277.508 59.3186 277.173 58.6488 276.548 58.18L275.348 59.78ZM275.508 60.1V68.22H277.508V60.1H275.508ZM275.508 68.22C275.508 72.3528 276.745 75.7897 279.287 78.4331L280.729 77.0469C278.604 74.837 277.508 71.9272 277.508 68.22H275.508ZM279.301 78.4471C281.865 81.0115 285.365 82.24 289.668 82.24V80.24C285.758 80.24 282.817 79.1352 280.715 77.0329L279.301 78.4471ZM289.668 82.24C293.802 82.24 297.276 81.0026 300.007 78.4738L298.649 77.0062C296.34 79.1441 293.374 80.24 289.668 80.24V82.24ZM300.022 78.4603C302.762 75.8216 304.108 72.3758 304.108 68.22H302.108C302.108 71.9042 300.934 74.8051 298.634 77.0197L300.022 78.4603ZM304.108 68.22V3.68H302.108V68.22H304.108ZM304.108 3.68C304.108 3.42759 304.176 3.32637 304.235 3.2671L302.821 1.85289C302.32 2.35363 302.108 2.99908 302.108 3.68H304.108ZM304.235 3.2671C304.448 3.05445 304.622 2.99999 304.788 2.99999V0.999992C304.02 0.999992 303.355 1.31887 302.821 1.85289L304.235 3.2671ZM304.788 2.99999H324.528V0.999992H304.788V2.99999ZM324.528 2.99999C324.68 2.99999 324.757 3.03846 324.848 3.15999L326.448 1.96C325.979 1.33486 325.309 0.999992 324.528 0.999992V2.99999ZM325.048 3.35999C325.169 3.45114 325.208 3.52809 325.208 3.68H327.208C327.208 2.89857 326.873 2.22885 326.248 1.75999L325.048 3.35999ZM325.208 3.68V68.36H327.208V3.68H325.208ZM325.208 68.36C325.208 74.6335 323.71 80.1398 320.739 84.9114L322.437 85.9686C325.626 80.8469 327.208 74.9665 327.208 68.36H325.208ZM320.739 84.9114C317.764 89.6897 313.568 93.4417 308.121 96.1656L309.015 97.9544C314.768 95.0783 319.252 91.0836 322.437 85.9686L320.739 84.9114ZM308.127 96.1626C302.777 98.792 296.632 100.12 289.668 100.12V102.12C296.89 102.12 303.345 100.741 309.009 97.9574L308.127 96.1626ZM393.122 41.06L392.323 41.66L392.408 41.7743L392.522 41.86L393.122 41.06ZM408.943 80.68L408.143 81.28L408.228 81.3943L408.342 81.48L408.943 80.68ZM408.943 99.58L409.65 100.287H409.65L408.943 99.58ZM340.342 99.58L339.543 100.18L339.628 100.294L339.742 100.38L340.342 99.58ZM340.342 2.55999L339.635 1.85289H339.635L340.342 2.55999ZM408.943 2.55999L408.143 3.16L408.228 3.27428L408.342 3.35999L408.943 2.55999ZM408.503 20.2C408.503 20.3658 408.448 20.5403 408.235 20.7529L409.65 22.1671C410.184 21.6331 410.503 20.9676 410.503 20.2H408.503ZM408.235 20.7529C408.176 20.8122 408.075 20.88 407.823 20.88V22.88C408.503 22.88 409.149 22.6678 409.65 22.1671L408.235 20.7529ZM407.823 20.88H363.862V22.88H407.823V20.88ZM363.862 20.88C363.475 20.88 363.001 20.9775 362.63 21.3479C362.26 21.7182 362.163 22.1925 362.163 22.58H364.163C364.163 22.5008 364.182 22.6251 364.045 22.7621C363.908 22.8991 363.783 22.88 363.862 22.88V20.88ZM362.163 22.58V39.8H364.163V22.58H362.163ZM362.163 39.8C362.163 40.1875 362.26 40.6618 362.63 41.0321C363.001 41.4025 363.475 41.5 363.862 41.5V39.5C363.783 39.5 363.908 39.4809 364.045 39.6179C364.182 39.7549 364.163 39.8792 364.163 39.8H362.163ZM363.862 41.5H392.003V39.5H363.862V41.5ZM392.003 41.5C392.154 41.5 392.231 41.5385 392.323 41.66L393.923 40.46C393.454 39.8349 392.784 39.5 392.003 39.5V41.5ZM392.522 41.86C392.644 41.9511 392.682 42.0281 392.682 42.18H394.682C394.682 41.3986 394.348 40.7289 393.723 40.26L392.522 41.86ZM392.682 42.18V58.56H394.682V42.18H392.682ZM392.682 58.56C392.682 58.7257 392.628 58.9002 392.415 59.1129L393.83 60.5271C394.364 59.9931 394.682 59.3276 394.682 58.56H392.682ZM392.415 59.1129C392.356 59.1722 392.255 59.24 392.003 59.24V61.24C392.683 61.24 393.329 61.0278 393.83 60.5271L392.415 59.1129ZM392.003 59.24H363.862V61.24H392.003V59.24ZM363.862 59.24C363.475 59.24 363.001 59.3375 362.63 59.7079C362.26 60.0782 362.163 60.5525 362.163 60.94H364.163C364.163 60.8608 364.182 60.9851 364.045 61.1221C363.908 61.2591 363.783 61.24 363.862 61.24V59.24ZM362.163 60.94V79.42H364.163V60.94H362.163ZM362.163 79.42C362.163 79.8075 362.26 80.2818 362.63 80.6521C363.001 81.0225 363.475 81.12 363.862 81.12V79.12C363.783 79.12 363.908 79.1009 364.045 79.2379C364.182 79.3749 364.163 79.4992 364.163 79.42H362.163ZM363.862 81.12H407.823V79.12H363.862V81.12ZM407.823 81.12C407.974 81.12 408.051 81.1585 408.143 81.28L409.742 80.08C409.274 79.4549 408.604 79.12 407.823 79.12V81.12ZM408.342 81.48C408.464 81.5711 408.503 81.6481 408.503 81.8H410.503C410.503 81.0186 410.168 80.3489 409.543 79.88L408.342 81.48ZM408.503 81.8V98.32H410.503V81.8H408.503ZM408.503 98.32C408.503 98.4857 408.448 98.6602 408.235 98.8729L409.65 100.287C410.184 99.7531 410.503 99.0876 410.503 98.32H408.503ZM408.235 98.8729C408.176 98.9322 408.075 99 407.823 99V101C408.503 101 409.149 100.788 409.65 100.287L408.235 98.8729ZM407.823 99H341.603V101H407.823V99ZM341.603 99C341.352 99 341.143 98.9302 340.943 98.78L339.742 100.38C340.289 100.79 340.919 101 341.603 101V99ZM341.142 98.98C340.992 98.7798 340.922 98.5703 340.922 98.32H338.922C338.922 99.003 339.133 99.6336 339.543 100.18L341.142 98.98ZM340.922 98.32V3.68H338.922V98.32H340.922ZM340.922 3.68C340.922 3.42759 340.99 3.32637 341.05 3.2671L339.635 1.85289C339.135 2.35363 338.922 2.99907 338.922 3.68H340.922ZM341.05 3.2671C341.262 3.05445 341.437 2.99999 341.603 2.99999V0.999992C340.835 0.999992 340.169 1.31887 339.635 1.85289L341.05 3.2671ZM341.603 2.99999H407.823V0.999992H341.603V2.99999ZM407.823 2.99999C407.974 2.99999 408.051 3.03847 408.143 3.16L409.742 1.95999C409.274 1.33485 408.604 0.999992 407.823 0.999992V2.99999ZM408.342 3.35999C408.464 3.45113 408.503 3.52808 408.503 3.68H410.503C410.503 2.89858 410.168 2.22886 409.543 1.76L408.342 3.35999ZM408.503 3.68V20.2H410.503V3.68H408.503ZM436.963 96.78L436.504 97.6684L436.51 97.6715L436.963 96.78ZM423.803 84.46L422.938 84.9611L422.944 84.9723L423.803 84.46ZM423.803 17.54L422.944 17.0277L422.942 17.0323L423.803 17.54ZM436.963 5.21999L436.51 4.32849L436.504 4.33157L436.963 5.21999ZM476.303 5.07999L475.856 5.97442L475.865 5.97887L475.874 5.98313L476.303 5.07999ZM489.463 16.7L488.61 17.2214L488.616 17.2308L488.622 17.24L489.463 16.7ZM493.663 35.04L493.063 34.24L493.006 34.2826L492.956 34.3329L493.663 35.04ZM492.543 35.46V34.46H492.512L492.48 34.462L492.543 35.46ZM472.663 36.72V37.72H472.695L472.727 37.718L472.663 36.72ZM446.343 24.82L447.05 25.5271L447.057 25.5209L447.063 25.5146L446.343 24.82ZM446.343 77.32L445.636 78.0271L446.343 77.32ZM467.063 77.32L467.77 78.0271L467.063 77.32ZM472.663 65.42L472.713 64.4212L472.688 64.42H472.663V65.42ZM492.543 66.4L492.494 67.3988L492.519 67.4H492.543V66.4ZM493.663 66.82L492.956 67.5271L493.006 67.5774L493.063 67.62L493.663 66.82ZM489.463 85.3L488.617 84.7671L488.61 84.7785L489.463 85.3ZM476.303 97.06L476.738 97.9604L476.745 97.9574L476.303 97.06ZM456.703 100.12C449.367 100.12 442.947 98.6994 437.416 95.8885L436.51 97.6715C442.366 100.647 449.106 102.12 456.703 102.12V100.12ZM437.422 95.8916C431.985 93.0823 427.738 89.1046 424.662 83.9477L422.944 84.9723C426.215 90.4554 430.742 94.691 436.504 97.6684L437.422 95.8916ZM424.669 83.959C421.689 78.8114 420.183 72.8289 420.183 65.98H418.183C418.183 73.1311 419.758 79.4686 422.938 84.961L424.669 83.959ZM420.183 65.98V35.74H418.183V65.98H420.183ZM420.183 35.74C420.183 28.9867 421.687 23.1002 424.665 18.0477L422.942 17.0323C419.759 22.4331 418.183 28.68 418.183 35.74H420.183ZM424.662 18.0523C427.738 12.8954 431.985 8.91771 437.422 6.10842L436.504 4.33157C430.742 7.30895 426.215 11.5446 422.944 17.0277L424.662 18.0523ZM437.416 6.11148C442.947 3.30063 449.367 1.88 456.703 1.88V-0.119999C449.106 -0.119999 442.366 1.3527 436.51 4.32851L437.416 6.11148ZM456.703 1.88C464.044 1.88 470.419 3.256 475.856 5.97442L476.75 4.18557C470.987 1.304 464.296 -0.119999 456.703 -0.119999V1.88ZM475.874 5.98313C481.404 8.6123 485.638 12.3584 488.61 17.2214L490.317 16.1785C487.128 10.9615 482.589 6.96102 476.733 4.17686L475.874 5.98313ZM488.622 17.24C491.68 22.0078 493.223 27.556 493.223 33.92H495.223C495.223 27.2173 493.593 21.2855 490.305 16.16L488.622 17.24ZM493.223 33.92C493.223 34.0719 493.185 34.1489 493.063 34.24L494.263 35.84C494.888 35.3711 495.223 34.7014 495.223 33.92H493.223ZM492.956 34.3329C492.897 34.3922 492.796 34.46 492.543 34.46V36.46C493.224 36.46 493.87 36.2478 494.37 35.7471L492.956 34.3329ZM492.48 34.462L472.6 35.722L472.727 37.718L492.607 36.458L492.48 34.462ZM472.663 35.72C472.237 35.72 472.104 35.6204 472.079 35.5978C472.071 35.5903 471.983 35.5157 471.983 35.18H469.983C469.983 35.8709 470.176 36.5663 470.728 37.0722C471.263 37.5629 471.97 37.72 472.663 37.72V35.72ZM471.983 35.18C471.983 30.5814 470.606 26.8083 467.77 23.9729L466.356 25.3871C468.747 27.7783 469.983 31.0053 469.983 35.18H471.983ZM467.77 23.9729C464.939 21.1416 461.215 19.76 456.703 19.76V21.76C460.778 21.76 463.961 22.9917 466.356 25.3871L467.77 23.9729ZM456.703 19.76C452.181 19.76 448.453 21.1954 445.624 24.1254L447.063 25.5146C449.46 23.0313 452.639 21.76 456.703 21.76V19.76ZM445.636 24.1129C442.805 26.9442 441.423 30.6678 441.423 35.18H443.423C443.423 31.1055 444.655 27.9225 447.05 25.5271L445.636 24.1129ZM441.423 35.18V66.96H443.423V35.18H441.423ZM441.423 66.96C441.423 71.4722 442.805 75.1958 445.636 78.0271L447.05 76.6129C444.655 74.2175 443.423 71.0345 443.423 66.96H441.423ZM445.636 78.0271C448.467 80.8584 452.191 82.24 456.703 82.24V80.24C452.629 80.24 449.446 79.0083 447.05 76.6129L445.636 78.0271ZM456.703 82.24C461.215 82.24 464.939 80.8584 467.77 78.0271L466.356 76.6129C463.961 79.0083 460.778 80.24 456.703 80.24V82.24ZM467.77 78.0271C470.602 75.1958 471.983 71.4722 471.983 66.96H469.983C469.983 71.0345 468.752 74.2175 466.356 76.6129L467.77 78.0271ZM471.983 66.96C471.983 66.6243 472.071 66.5497 472.079 66.5422C472.104 66.5196 472.237 66.42 472.663 66.42V64.42C471.97 64.42 471.263 64.5771 470.728 65.0678C470.176 65.5737 469.983 66.2691 469.983 66.96H471.983ZM472.614 66.4188L492.494 67.3988L492.593 65.4012L472.713 64.4212L472.614 66.4188ZM492.543 67.4C492.796 67.4 492.897 67.4678 492.956 67.5271L494.37 66.1129C493.87 65.6122 493.224 65.4 492.543 65.4V67.4ZM493.063 67.62C493.166 67.6972 493.204 67.7512 493.215 67.7711C493.223 67.7846 493.223 67.7888 493.223 67.8H495.223C495.223 67.0338 494.819 66.4365 494.263 66.02L493.063 67.62ZM493.223 67.8C493.223 74.26 491.679 79.9043 488.617 84.7672L490.31 85.8328C493.594 80.6157 495.223 74.5933 495.223 67.8H493.223ZM488.61 84.7785C485.636 89.6446 481.398 93.4399 475.862 96.1626L476.745 97.9574C482.595 95.0801 487.13 91.0354 490.317 85.8214L488.61 84.7785ZM475.868 96.1597C470.428 98.7889 464.049 100.12 456.703 100.12V102.12C464.291 102.12 470.978 100.744 476.738 97.9603L475.868 96.1597ZM576.902 2.55999L576.102 3.16L576.188 3.27428L576.302 3.35999L576.902 2.55999ZM576.902 21.6L577.609 22.3071V22.3071L576.902 21.6ZM550.022 99.58L549.315 98.8729L550.022 99.58ZM527.762 99.58L526.962 100.18L527.048 100.294L527.162 100.38L527.762 99.58ZM501.722 21.6L500.922 22.2L501.008 22.3143L501.122 22.4L501.722 21.6ZM501.722 2.55999L501.015 1.85289L501.722 2.55999ZM575.782 2.99999C575.934 2.99999 576.011 3.03847 576.102 3.16L577.702 1.95999C577.233 1.33485 576.563 0.999992 575.782 0.999992V2.99999ZM576.302 3.35999C576.424 3.45114 576.462 3.52809 576.462 3.68H578.462C578.462 2.89857 578.127 2.22885 577.502 1.75999L576.302 3.35999ZM576.462 3.68V20.34H578.462V3.68H576.462ZM576.462 20.34C576.462 20.5057 576.408 20.6802 576.195 20.8929L577.609 22.3071C578.143 21.7731 578.462 21.1076 578.462 20.34H576.462ZM576.195 20.8929C576.136 20.9522 576.034 21.02 575.782 21.02V23.02C576.463 23.02 577.108 22.8078 577.609 22.3071L576.195 20.8929ZM575.782 21.02H551.282V23.02H575.782V21.02ZM551.282 21.02C550.895 21.02 550.42 21.1175 550.05 21.4879C549.68 21.8582 549.582 22.3325 549.582 22.72H551.582C551.582 22.6408 551.601 22.7651 551.464 22.9021C551.327 23.0391 551.203 23.02 551.282 23.02V21.02ZM549.582 22.72V98.32H551.582V22.72H549.582ZM549.582 98.32C549.582 98.4857 549.528 98.6602 549.315 98.8729L550.729 100.287C551.263 99.7531 551.582 99.0876 551.582 98.32H549.582ZM549.315 98.8729C549.256 98.9322 549.154 99 548.902 99V101C549.583 101 550.228 100.788 550.729 100.287L549.315 98.8729ZM548.902 99H529.022V101H548.902V99ZM529.022 99C528.772 99 528.562 98.9302 528.362 98.78L527.162 100.38C527.708 100.79 528.339 101 529.022 101V99ZM528.562 98.98C528.412 98.7798 528.342 98.5703 528.342 98.32H526.342C526.342 99.003 526.552 99.6336 526.962 100.18L528.562 98.98ZM528.342 98.32V22.72H526.342V98.32H528.342ZM528.342 22.72C528.342 22.3325 528.245 21.8582 527.874 21.4879C527.504 21.1175 527.03 21.02 526.642 21.02V23.02C526.721 23.02 526.597 23.0391 526.46 22.9021C526.323 22.7651 526.342 22.6408 526.342 22.72H528.342ZM526.642 21.02H502.982V23.02H526.642V21.02ZM502.982 21.02C502.732 21.02 502.522 20.9502 502.322 20.8L501.122 22.4C501.668 22.8098 502.299 23.02 502.982 23.02V21.02ZM502.522 21C502.372 20.7998 502.302 20.5903 502.302 20.34H500.302C500.302 21.023 500.512 21.6536 500.922 22.2L502.522 21ZM502.302 20.34V3.68H500.302V20.34H502.302ZM502.302 3.68C502.302 3.42759 502.37 3.32637 502.429 3.2671L501.015 1.85289C500.514 2.35363 500.302 2.99907 500.302 3.68H502.302ZM502.429 3.2671C502.642 3.05445 502.816 2.99999 502.982 2.99999V0.999992C502.214 0.999992 501.549 1.31887 501.015 1.85289L502.429 3.2671ZM502.982 2.99999H575.782V0.999992H502.982V2.99999ZM623.107 98.04L622.178 97.6719L622.171 97.6877L622.166 97.7037L623.107 98.04ZM652.927 22.72L652.033 22.2728L652.014 22.3116L651.998 22.3519L652.927 22.72ZM652.787 22.16L651.893 22.6072L651.966 22.7523L652.08 22.8671L652.787 22.16ZM628.987 30.42L629.695 31.1271L629.695 31.1271L628.987 30.42ZM611.068 30.42L610.268 31.02L610.353 31.1343L610.468 31.22L611.068 30.42ZM610.648 29.16L609.648 29.1545V29.16H610.648ZM610.787 3.68L611.787 3.68549V3.68H610.787ZM611.208 2.55999L610.5 1.85289L611.208 2.55999ZM677.008 2.55999L676.208 3.16L676.293 3.27428L676.407 3.35999L677.008 2.55999ZM677.148 22.86L678.079 23.2228L678.088 23.1997L678.096 23.1762L677.148 22.86ZM647.607 98.74L646.676 98.3772L646.667 98.4003L646.659 98.4238L647.607 98.74ZM624.508 99C624.227 99 624.056 98.9662 623.963 98.9336C623.879 98.9041 623.893 98.8888 623.921 98.9288C623.95 98.9695 623.932 98.9808 623.932 98.8975C623.932 98.804 623.956 98.6363 624.049 98.3763L622.166 97.7037C621.901 98.4436 621.765 99.3514 622.294 100.091C622.819 100.827 623.72 101 624.508 101V99ZM624.037 98.4081L653.857 23.0881L651.998 22.3519L622.178 97.6719L624.037 98.4081ZM653.822 23.1672C653.966 22.8798 654.019 22.5427 653.933 22.1975C653.852 21.8746 653.67 21.6286 653.495 21.4529L652.08 22.8671C652.091 22.878 652.026 22.8187 651.992 22.6825C651.953 22.524 651.983 22.3735 652.033 22.2728L653.822 23.1672ZM653.682 21.7128C653.576 21.5008 653.413 21.2818 653.167 21.1179C652.915 20.9499 652.636 20.88 652.367 20.88V22.88C652.286 22.88 652.17 22.8567 652.058 22.7821C651.952 22.7116 651.906 22.6325 651.893 22.6072L653.682 21.7128ZM652.367 20.88H630.247V22.88H652.367V20.88ZM630.247 20.88C629.86 20.88 629.386 20.9775 629.015 21.3479C628.645 21.7182 628.547 22.1925 628.547 22.58H630.547C630.547 22.5008 630.567 22.6251 630.43 22.7621C630.293 22.8991 630.168 22.88 630.247 22.88V20.88ZM628.547 22.58V29.16H630.547V22.58H628.547ZM628.547 29.16C628.547 29.3257 628.493 29.5002 628.28 29.7129L629.695 31.1271C630.229 30.5931 630.547 29.9276 630.547 29.16H628.547ZM628.28 29.7129C628.221 29.7722 628.12 29.84 627.867 29.84V31.84C628.548 31.84 629.194 31.6278 629.695 31.1271L628.28 29.7129ZM627.867 29.84H612.328V31.84H627.867V29.84ZM612.328 29.84C612.077 29.84 611.868 29.7702 611.667 29.62L610.468 31.22C611.014 31.6298 611.644 31.84 612.328 31.84V29.84ZM611.867 29.82C611.717 29.6198 611.648 29.4103 611.648 29.16H609.648C609.648 29.843 609.858 30.4736 610.268 31.02L611.867 29.82ZM611.647 29.1655L611.787 3.68549L609.788 3.6745L609.648 29.1545L611.647 29.1655ZM611.787 3.68C611.787 3.42759 611.855 3.32637 611.915 3.2671L610.5 1.85289C610 2.35363 609.787 2.99907 609.787 3.68H611.787ZM611.915 3.2671C612.127 3.05445 612.302 2.99999 612.468 2.99999V0.999992C611.7 0.999992 611.034 1.31887 610.5 1.85289L611.915 3.2671ZM612.468 2.99999H675.888V0.999992H612.468V2.99999ZM675.888 2.99999C676.039 2.99999 676.116 3.03847 676.208 3.16L677.807 1.95999C677.339 1.33485 676.669 0.999992 675.888 0.999992V2.99999ZM676.407 3.35999C676.529 3.45114 676.568 3.52809 676.568 3.68H678.568C678.568 2.89857 678.233 2.22886 677.607 1.76L676.407 3.35999ZM676.568 3.68V20.76H678.568V3.68H676.568ZM676.568 20.76C676.568 21.1687 676.462 21.7537 676.199 22.5438L678.096 23.1762C678.393 22.2863 678.568 21.4712 678.568 20.76H676.568ZM676.216 22.4972L646.676 98.3772L648.539 99.1028L678.079 23.2228L676.216 22.4972ZM646.659 98.4238C646.58 98.6593 646.475 98.7742 646.367 98.8438C646.246 98.9217 646.03 99 645.648 99V101C646.292 101 646.916 100.868 647.448 100.526C647.993 100.176 648.355 99.6607 648.556 99.0562L646.659 98.4238ZM645.648 99H624.508V101H645.648V99ZM693.654 98.04L692.725 97.6719L692.718 97.6877L692.713 97.7037L693.654 98.04ZM723.474 22.72L722.58 22.2728L722.561 22.3116L722.545 22.3519L723.474 22.72ZM723.334 22.16L722.44 22.6072L722.513 22.7523L722.627 22.8671L723.334 22.16ZM699.534 30.42L700.241 31.1271L700.242 31.1271L699.534 30.42ZM681.614 30.42L680.814 31.02L680.9 31.1343L681.014 31.22L681.614 30.42ZM681.194 29.16L680.194 29.1545V29.16H681.194ZM681.334 3.68L682.334 3.68549V3.68H681.334ZM681.754 2.55999L681.047 1.85289L681.754 2.55999ZM747.554 2.55999L746.754 3.16L746.84 3.27428L746.954 3.35999L747.554 2.55999ZM747.694 22.86L748.626 23.2228L748.635 23.1997L748.643 23.1762L747.694 22.86ZM718.154 98.74L717.222 98.3772L717.214 98.4003L717.206 98.4238L718.154 98.74ZM695.054 99C694.774 99 694.603 98.9662 694.51 98.9336C694.425 98.9041 694.44 98.8888 694.468 98.9288C694.497 98.9695 694.479 98.9808 694.479 98.8975C694.479 98.804 694.503 98.6363 694.596 98.3763L692.713 97.7037C692.448 98.4436 692.312 99.3514 692.841 100.091C693.366 100.827 694.267 101 695.054 101V99ZM694.584 98.4081L724.404 23.0881L722.545 22.3519L692.725 97.6719L694.584 98.4081ZM724.369 23.1672C724.513 22.8798 724.566 22.5427 724.479 22.1975C724.399 21.8746 724.217 21.6286 724.042 21.4529L722.627 22.8671C722.638 22.878 722.573 22.8187 722.539 22.6825C722.5 22.524 722.53 22.3735 722.58 22.2728L724.369 23.1672ZM724.229 21.7128C724.123 21.5008 723.96 21.2818 723.714 21.1179C723.462 20.9499 723.183 20.88 722.914 20.88V22.88C722.833 22.88 722.717 22.8567 722.605 22.7821C722.499 22.7116 722.453 22.6325 722.44 22.6072L724.229 21.7128ZM722.914 20.88H700.794V22.88H722.914V20.88ZM700.794 20.88C700.407 20.88 699.933 20.9775 699.562 21.3479C699.192 21.7182 699.094 22.1925 699.094 22.58H701.094C701.094 22.5008 701.114 22.6251 700.977 22.7621C700.839 22.8991 700.715 22.88 700.794 22.88V20.88ZM699.094 22.58V29.16H701.094V22.58H699.094ZM699.094 29.16C699.094 29.3257 699.04 29.5002 698.827 29.7129L700.242 31.1271C700.776 30.5931 701.094 29.9276 701.094 29.16H699.094ZM698.827 29.7129C698.768 29.7722 698.667 29.84 698.414 29.84V31.84C699.095 31.84 699.741 31.6278 700.241 31.1271L698.827 29.7129ZM698.414 29.84H682.874V31.84H698.414V29.84ZM682.874 29.84C682.624 29.84 682.415 29.7702 682.214 29.62L681.014 31.22C681.561 31.6298 682.191 31.84 682.874 31.84V29.84ZM682.414 29.82C682.264 29.6198 682.194 29.4103 682.194 29.16H680.194C680.194 29.843 680.405 30.4736 680.814 31.02L682.414 29.82ZM682.194 29.1655L682.334 3.68549L680.334 3.6745L680.194 29.1545L682.194 29.1655ZM682.334 3.68C682.334 3.42759 682.402 3.32637 682.461 3.2671L681.047 1.85289C680.547 2.35363 680.334 2.99907 680.334 3.68H682.334ZM682.461 3.2671C682.674 3.05445 682.849 2.99999 683.014 2.99999V0.999992C682.247 0.999992 681.581 1.31887 681.047 1.85289L682.461 3.2671ZM683.014 2.99999H746.434V0.999992H683.014V2.99999ZM746.434 2.99999C746.586 2.99999 746.663 3.03847 746.754 3.16L748.354 1.95999C747.885 1.33485 747.216 0.999992 746.434 0.999992V2.99999ZM746.954 3.35999C747.076 3.45114 747.114 3.52809 747.114 3.68H749.114C749.114 2.89857 748.78 2.22886 748.154 1.76L746.954 3.35999ZM747.114 3.68V20.76H749.114V3.68H747.114ZM747.114 20.76C747.114 21.1687 747.009 21.7537 746.746 22.5438L748.643 23.1762C748.94 22.2863 749.114 21.4712 749.114 20.76H747.114ZM746.763 22.4972L717.222 98.3772L719.086 99.1028L748.626 23.2228L746.763 22.4972ZM717.206 98.4238C717.127 98.6593 717.022 98.7742 716.914 98.8438C716.792 98.9217 716.576 99 716.194 99V101C716.839 101 717.463 100.868 717.995 100.526C718.54 100.176 718.902 99.6607 719.103 99.0562L717.206 98.4238ZM716.194 99H695.054V101H716.194V99ZM830.701 55.48L829.901 56.08L829.987 56.1943L830.101 56.28L830.701 55.48ZM830.701 75.08L829.994 74.3729L830.701 75.08ZM822.301 99.58L821.594 98.8729L822.301 99.58ZM800.041 99.58L799.241 100.18L799.327 100.294L799.441 100.38L800.041 99.58ZM753.981 75.08L753.181 75.68L753.267 75.7943L753.381 75.88L753.981 75.08ZM753.981 58.14L753.066 57.7382L753.047 57.7802L753.033 57.8238L753.981 58.14ZM778.061 3.25999L777.147 2.85385L777.146 2.8582L778.061 3.25999ZM802.561 2.55999L801.667 3.0072L801.739 3.15235L801.854 3.2671L802.561 2.55999ZM802.561 3.95999L803.477 4.36163L803.48 4.35392L802.561 3.95999ZM780.581 54.08L781.476 54.5272L781.487 54.5047L781.497 54.4816L780.581 54.08ZM780.581 54.64L779.687 55.0872V55.0872L780.581 54.64ZM800.041 37.42L800.748 38.1271V38.1271L800.041 37.42ZM822.301 37.42L821.501 38.02L821.587 38.1343L821.701 38.22L822.301 37.42ZM829.581 55.92C829.733 55.92 829.81 55.9585 829.901 56.08L831.501 54.88C831.032 54.2549 830.363 53.92 829.581 53.92V55.92ZM830.101 56.28C830.223 56.3711 830.261 56.4481 830.261 56.6H832.261C832.261 55.8186 831.926 55.1488 831.301 54.68L830.101 56.28ZM830.261 56.6V73.82H832.261V56.6H830.261ZM830.261 73.82C830.261 73.9857 830.207 74.1602 829.994 74.3729L831.408 75.7871C831.942 75.2531 832.261 74.5876 832.261 73.82H830.261ZM829.994 74.3729C829.935 74.4322 829.834 74.5 829.581 74.5V76.5C830.262 76.5 830.908 76.2878 831.408 75.7871L829.994 74.3729ZM829.581 74.5H823.561V76.5H829.581V74.5ZM823.561 74.5C823.174 74.5 822.699 74.5975 822.329 74.9679C821.959 75.3382 821.861 75.8125 821.861 76.2H823.861C823.861 76.1208 823.88 76.2451 823.743 76.3821C823.606 76.5191 823.482 76.5 823.561 76.5V74.5ZM821.861 76.2V98.32H823.861V76.2H821.861ZM821.861 98.32C821.861 98.4857 821.807 98.6602 821.594 98.8729L823.008 100.287C823.542 99.7531 823.861 99.0876 823.861 98.32H821.861ZM821.594 98.8729C821.535 98.9322 821.434 99 821.181 99V101C821.862 101 822.508 100.788 823.008 100.287L821.594 98.8729ZM821.181 99H801.301V101H821.181V99ZM801.301 99C801.051 99 800.841 98.9302 800.641 98.78L799.441 100.38C799.988 100.79 800.618 101 801.301 101V99ZM800.841 98.98C800.691 98.7798 800.621 98.5703 800.621 98.32H798.621C798.621 99.003 798.831 99.6336 799.241 100.18L800.841 98.98ZM800.621 98.32V76.2H798.621V98.32H800.621ZM800.621 76.2C800.621 75.8125 800.524 75.3382 800.153 74.9679C799.783 74.5975 799.309 74.5 798.921 74.5V76.5C799 76.5 798.876 76.5191 798.739 76.3821C798.602 76.2451 798.621 76.1208 798.621 76.2H800.621ZM798.921 74.5H755.241V76.5H798.921V74.5ZM755.241 74.5C754.991 74.5 754.781 74.4302 754.581 74.28L753.381 75.88C753.928 76.2898 754.558 76.5 755.241 76.5V74.5ZM754.781 74.48C754.631 74.2798 754.561 74.0703 754.561 73.82H752.561C752.561 74.503 752.771 75.1336 753.181 75.68L754.781 74.48ZM754.561 73.82V60.24H752.561V73.82H754.561ZM754.561 60.24C754.561 59.8312 754.667 59.2463 754.93 58.4562L753.033 57.8238C752.736 58.7137 752.561 59.5287 752.561 60.24H754.561ZM754.897 58.5418L778.977 3.66179L777.146 2.8582L753.066 57.7382L754.897 58.5418ZM778.975 3.66613C779.097 3.39113 779.238 3.24254 779.372 3.15617C779.507 3.06915 779.707 2.99999 780.021 2.99999V0.999992C779.402 0.999992 778.808 1.14084 778.29 1.47382C777.771 1.80745 777.399 2.28885 777.147 2.85386L778.975 3.66613ZM780.021 2.99999H801.301V0.999992H780.021V2.99999ZM801.301 2.99999C801.543 2.99999 801.66 3.03595 801.7 3.05381C801.716 3.06107 801.712 3.06184 801.699 3.04979C801.685 3.03686 801.674 3.02078 801.667 3.0072L803.456 2.11279C803.015 1.23223 802.099 0.999992 801.301 0.999992V2.99999ZM801.854 3.2671C801.823 3.23544 801.797 3.19549 801.782 3.15612C801.769 3.11982 801.771 3.1032 801.771 3.12C801.771 3.16602 801.754 3.30518 801.642 3.56607L803.48 4.35392C803.785 3.64406 804.022 2.60699 803.268 1.85289L801.854 3.2671ZM801.645 3.55837L779.665 53.6784L781.497 54.4816L803.477 4.36162L801.645 3.55837ZM779.687 53.6328C779.453 54.101 779.453 54.619 779.687 55.0872L781.476 54.1928C781.49 54.2217 781.511 54.2806 781.511 54.36C781.511 54.4394 781.49 54.4983 781.476 54.5272L779.687 53.6328ZM779.687 55.0872C779.793 55.2992 779.956 55.5182 780.202 55.6821C780.454 55.85 780.733 55.92 781.001 55.92V53.92C781.083 53.92 781.199 53.9433 781.311 54.0179C781.417 54.0884 781.463 54.1675 781.476 54.1928L779.687 55.0872ZM781.001 55.92H798.921V53.92H781.001V55.92ZM798.921 55.92C799.309 55.92 799.783 55.8224 800.153 55.4521C800.524 55.0818 800.621 54.6075 800.621 54.22H798.621C798.621 54.2992 798.602 54.1749 798.739 54.0379C798.876 53.9009 799 53.92 798.921 53.92V55.92ZM800.621 54.22V38.54H798.621V54.22H800.621ZM800.621 38.54C800.621 38.2876 800.689 38.1864 800.748 38.1271L799.334 36.7129C798.833 37.2136 798.621 37.8591 798.621 38.54H800.621ZM800.748 38.1271C800.961 37.9145 801.135 37.86 801.301 37.86V35.86C800.534 35.86 799.868 36.1789 799.334 36.7129L800.748 38.1271ZM801.301 37.86H821.181V35.86H801.301V37.86ZM821.181 37.86C821.333 37.86 821.41 37.8985 821.501 38.02L823.101 36.82C822.632 36.1949 821.963 35.86 821.181 35.86V37.86ZM821.701 38.22C821.823 38.3111 821.861 38.3881 821.861 38.54H823.861C823.861 37.7586 823.526 37.0889 822.901 36.62L821.701 38.22ZM821.861 38.54V54.22H823.861V38.54H821.861ZM821.861 54.22C821.861 54.6075 821.959 55.0818 822.329 55.4521C822.699 55.8224 823.174 55.92 823.561 55.92V53.92C823.482 53.92 823.606 53.9009 823.743 54.0379C823.88 54.1749 823.861 54.2992 823.861 54.22H821.861ZM823.561 55.92H829.581V53.92H823.561V55.92Z" fill="#868686" fill-opacity="0.5"/>
</svg>
